<svg id="visual" viewBox="0 0 960 540" width="960" height="540" xmlns="http://www.w3.org/2000/svg" xmlns:xlink="http://www.w3.org/1999/xlink" version="1.1">
   <rect x="0" y="0" width="960" height="540" fill="#001220"></rect>
   <defs>
      <linearGradient id="grad1_0" x1="43.8%" y1="0%" x2="100%" y2="100%">
         <stop offset="14.444444444444446%" stop-color="#001220" stop-opacity="1"></stop>
         <stop offset="85.55555555555554%" stop-color="#001220" stop-opacity="1"></stop>
      </linearGradient>
   </defs>
   <defs>
      <linearGradient id="grad2_0" x1="0%" y1="0%" x2="56.3%" y2="100%">
         <stop offset="14.444444444444446%" stop-color="#001220" stop-opacity="1"></stop>
         <stop offset="85.55555555555554%" stop-color="#001220" stop-opacity="1"></stop>
      </linearGradient>
   </defs>
   <g transform="translate(960, 0)">
      <path d="M0 432C-71.7 414.8 -143.4 397.6 -210 363.7C-276.6 329.9 -338 279.4 -374.1 216C-410.3 152.6 -421.1 76.3 -432 0L0 0Z" fill="#0066FF"></path>
   </g>
   <g transform="translate(0, 540)">
      <path d="M0 -432C85.8 -426.6 171.5 -421.2 216 -374.1C260.5 -327 263.6 -238.3 292.7 -169C321.8 -99.7 376.9 -49.9 432 0L0 0Z" fill="#0066FF"></path>
   </g>
</svg>