<svg id="visual" viewBox="0 0 960 540" width="960" height="540" xmlns="http://www.w3.org/2000/svg" xmlns:xlink="http://www.w3.org/1999/xlink" version="1.1">
   <rect x="0" y="0" width="960" height="540" fill="#001220"></rect>
   <g fill="#A7233A">
      <circle r="20" cx="854" cy="208"></circle>
      <circle r="2" cx="831" cy="257"></circle>
      <circle r="17" cx="345" cy="497"></circle>
      <circle r="11" cx="900" cy="178"></circle>
      <circle r="14" cx="458" cy="261"></circle>
      <circle r="3" cx="422" cy="94"></circle>
      <circle r="8" cx="522" cy="203"></circle>
      <circle r="5" cx="462" cy="54"></circle>
      <circle r="18" cx="317" cy="126"></circle>
      <circle r="10" cx="702" cy="170"></circle>
      <circle r="3" cx="445" cy="133"></circle>
      <circle r="12" cx="317" cy="185"></circle>
      <circle r="16" cx="62" cy="219"></circle>
      <circle r="4" cx="234" cy="235"></circle>
      <circle r="9" cx="242" cy="292"></circle>
      <circle r="5" cx="696" cy="230"></circle>
      <circle r="10" cx="185" cy="362"></circle>
      <circle r="16" cx="852" cy="331"></circle>
      <circle r="6" cx="233" cy="358"></circle>
      <circle r="4" cx="759" cy="77"></circle>
      <circle r="3" cx="564" cy="250"></circle>
      <circle r="4" cx="210" cy="397"></circle>
      <circle r="18" cx="454" cy="358"></circle>
      <circle r="7" cx="21" cy="271"></circle>
      <circle r="17" cx="815" cy="100"></circle>
      <circle r="7" cx="334" cy="231"></circle>
      <circle r="3" cx="366" cy="85"></circle>
      <circle r="6" cx="524" cy="95"></circle>
      <circle r="16" cx="131" cy="190"></circle>
      <circle r="14" cx="162" cy="409"></circle>
      <circle r="3" cx="656" cy="430"></circle>
      <circle r="14" cx="534" cy="16"></circle>
      <circle r="4" cx="480" cy="536"></circle>
      <circle r="13" cx="215" cy="470"></circle>
      <circle r="5" cx="505" cy="322"></circle>
      <circle r="9" cx="680" cy="372"></circle>
      <circle r="18" cx="688" cy="62"></circle>
      <circle r="13" cx="463" cy="413"></circle>
      <circle r="12" cx="389" cy="431"></circle>
      <circle r="6" cx="652" cy="206"></circle>
      <circle r="8" cx="565" cy="199"></circle>
      <circle r="9" cx="255" cy="62"></circle>
      <circle r="1" cx="264" cy="174"></circle>
      <circle r="12" cx="576" cy="506"></circle>
      <circle r="14" cx="221" cy="148"></circle>
      <circle r="9" cx="170" cy="296"></circle>
      <circle r="7" cx="784" cy="27"></circle>
      <circle r="14" cx="38" cy="466"></circle>
      <circle r="15" cx="409" cy="223"></circle>
      <circle r="5" cx="891" cy="348"></circle>
      <circle r="16" cx="639" cy="525"></circle>
      <circle r="8" cx="747" cy="159"></circle>
      <circle r="11" cx="936" cy="36"></circle>
      <circle r="1" cx="568" cy="294"></circle>
      <circle r="12" cx="191" cy="250"></circle>
      <circle r="18" cx="712" cy="439"></circle>
      <circle r="4" cx="199" cy="510"></circle>
      <circle r="13" cx="653" cy="86"></circle>
      <circle r="15" cx="28" cy="403"></circle>
      <circle r="9" cx="781" cy="216"></circle>
      <circle r="2" cx="592" cy="91"></circle>
      <circle r="4" cx="315" cy="344"></circle>
      <circle r="4" cx="708" cy="300"></circle>
      <circle r="6" cx="942" cy="122"></circle>
      <circle r="3" cx="104" cy="85"></circle>
      <circle r="9" cx="602" cy="450"></circle>
      <circle r="5" cx="612" cy="306"></circle>
   </g>
</svg>