<svg id="visual" viewBox="0 0 900 600" width="900" height="600" xmlns="http://www.w3.org/2000/svg" xmlns:xlink="http://www.w3.org/1999/xlink" version="1.1">
   <rect width="900" height="600" fill="#0A0E1C"></rect>
   <g>
      <g transform="translate(438 68)">
         <path d="M0 -40.2L17.4 -36.2L31.4 -25L39.2 -8.9L39.2 8.9L31.4 25L17.4 36.2L0 40.2L-17.4 36.2L-31.4 25L-39.2 8.9L-39.2 -8.9L-31.4 -25L-17.4 -36.2Z" fill="#297EA6"></path>
      </g>
      <g transform="translate(35 320)">
         <path d="M0 -35L15.2 -31.5L27.4 -21.8L34.1 -7.8L34.1 7.8L27.4 21.8L15.2 31.5L0 35L-15.2 31.5L-27.4 21.8L-34.1 7.8L-34.1 -7.8L-27.4 -21.8L-15.2 -31.5Z" fill="#297EA6"></path>
      </g>
      <g transform="translate(843 372)">
         <path d="M0 -35L15.2 -31.5L27.4 -21.8L34.1 -7.8L34.1 7.8L27.4 21.8L15.2 31.5L0 35L-15.2 31.5L-27.4 21.8L-34.1 7.8L-34.1 -7.8L-27.4 -21.8L-15.2 -31.5Z" fill="#297EA6"></path>
      </g>
      <g transform="translate(505 323)">
         <path d="M0 -23L10 -20.7L18 -14.3L22.4 -5.1L22.4 5.1L18 14.3L10 20.7L0 23L-10 20.7L-18 14.3L-22.4 5.1L-22.4 -5.1L-18 -14.3L-10 -20.7Z" fill="#297EA6"></path>
      </g>
      <g transform="translate(290 514)">
         <path d="M0 -33L14.3 -29.7L25.8 -20.6L32.2 -7.3L32.2 7.3L25.8 20.6L14.3 29.7L0 33L-14.3 29.7L-25.8 20.6L-32.2 7.3L-32.2 -7.3L-25.8 -20.6L-14.3 -29.7Z" fill="#297EA6"></path>
      </g>
      <g transform="translate(182 514)">
         <path d="M0 -37L16.1 -33.3L28.9 -23.1L36.1 -8.2L36.1 8.2L28.9 23.1L16.1 33.3L0 37L-16.1 33.3L-28.9 23.1L-36.1 8.2L-36.1 -8.2L-28.9 -23.1L-16.1 -33.3Z" fill="#297EA6"></path>
      </g>
      <g transform="translate(445 250)">
         <path d="M0 -27L11.7 -24.3L21.1 -16.8L26.3 -6L26.3 6L21.1 16.8L11.7 24.3L0 27L-11.7 24.3L-21.1 16.8L-26.3 6L-26.3 -6L-21.1 -16.8L-11.7 -24.3Z" fill="#297EA6"></path>
      </g>
      <g transform="translate(813 211)">
         <path d="M0 -38L16.5 -34.2L29.7 -23.7L37 -8.5L37 8.5L29.7 23.7L16.5 34.2L0 38L-16.5 34.2L-29.7 23.7L-37 8.5L-37 -8.5L-29.7 -23.7L-16.5 -34.2Z" fill="#297EA6"></path>
      </g>
      <g transform="translate(820 542)">
         <path d="M0 -26L11.3 -23.4L20.3 -16.2L25.3 -5.8L25.3 5.8L20.3 16.2L11.3 23.4L0 26L-11.3 23.4L-20.3 16.2L-25.3 5.8L-25.3 -5.8L-20.3 -16.2L-11.3 -23.4Z" fill="#297EA6"></path>
      </g>
      <g transform="translate(721 361)">
         <path d="M0 -22L9.5 -19.8L17.2 -13.7L21.4 -4.9L21.4 4.9L17.2 13.7L9.5 19.8L0 22L-9.5 19.8L-17.2 13.7L-21.4 4.9L-21.4 -4.9L-17.2 -13.7L-9.5 -19.8Z" fill="#297EA6"></path>
      </g>
      <g transform="translate(431 465)">
         <path d="M0 -30L13 -27L23.5 -18.7L29.2 -6.7L29.2 6.7L23.5 18.7L13 27L0 30L-13 27L-23.5 18.7L-29.2 6.7L-29.2 -6.7L-23.5 -18.7L-13 -27Z" fill="#297EA6"></path>
      </g>
      <g transform="translate(100 548)">
         <path d="M0 -13L5.6 -11.7L10.2 -8.1L12.7 -2.9L12.7 2.9L10.2 8.1L5.6 11.7L0 13L-5.6 11.7L-10.2 8.1L-12.7 2.9L-12.7 -2.9L-10.2 -8.1L-5.6 -11.7Z" fill="#297EA6"></path>
      </g>
      <g transform="translate(74 6)">
         <path d="M0 -14L6.1 -12.6L10.9 -8.7L13.6 -3.1L13.6 3.1L10.9 8.7L6.1 12.6L0 14L-6.1 12.6L-10.9 8.7L-13.6 3.1L-13.6 -3.1L-10.9 -8.7L-6.1 -12.6Z" fill="#297EA6"></path>
      </g>
      <g transform="translate(286 34)">
         <path d="M0 -18L7.8 -16.2L14.1 -11.2L17.5 -4L17.5 4L14.1 11.2L7.8 16.2L0 18L-7.8 16.2L-14.1 11.2L-17.5 4L-17.5 -4L-14.1 -11.2L-7.8 -16.2Z" fill="#297EA6"></path>
      </g>
      <g transform="translate(300 180)">
         <path d="M0 -30L13 -27L23.5 -18.7L29.2 -6.7L29.2 6.7L23.5 18.7L13 27L0 30L-13 27L-23.5 18.7L-29.2 6.7L-29.2 -6.7L-23.5 -18.7L-13 -27Z" fill="#297EA6"></path>
      </g>
      <g transform="translate(130 217)">
         <path d="M0 -10L4.3 -9L7.8 -6.2L9.7 -2.2L9.7 2.2L7.8 6.2L4.3 9L0 10L-4.3 9L-7.8 6.2L-9.7 2.2L-9.7 -2.2L-7.8 -6.2L-4.3 -9Z" fill="#297EA6"></path>
      </g>
      <g transform="translate(299 326)">
         <path d="M0 -18L7.8 -16.2L14.1 -11.2L17.5 -4L17.5 4L14.1 11.2L7.8 16.2L0 18L-7.8 16.2L-14.1 11.2L-17.5 4L-17.5 -4L-14.1 -11.2L-7.8 -16.2Z" fill="#297EA6"></path>
      </g>
      <g transform="translate(544 18)">
         <path d="M0 -24L10.4 -21.6L18.8 -15L23.4 -5.3L23.4 5.3L18.8 15L10.4 21.6L0 24L-10.4 21.6L-18.8 15L-23.4 5.3L-23.4 -5.3L-18.8 -15L-10.4 -21.6Z" fill="#297EA6"></path>
      </g>
      <g transform="translate(20 156)">
         <path d="M0 -39L16.9 -35.1L30.5 -24.3L38 -8.7L38 8.7L30.5 24.3L16.9 35.1L0 39L-16.9 35.1L-30.5 24.3L-38 8.7L-38 -8.7L-30.5 -24.3L-16.9 -35.1Z" fill="#297EA6"></path>
      </g>
      <g transform="translate(360 587)">
         <path d="M0 -33L14.3 -29.7L25.8 -20.6L32.2 -7.3L32.2 7.3L25.8 20.6L14.3 29.7L0 33L-14.3 29.7L-25.8 20.6L-32.2 7.3L-32.2 -7.3L-25.8 -20.6L-14.3 -29.7Z" fill="#297EA6"></path>
      </g>
      <g transform="translate(898 185)">
         <path d="M0 -33L14.3 -29.7L25.8 -20.6L32.2 -7.3L32.2 7.3L25.8 20.6L14.3 29.7L0 33L-14.3 29.7L-25.8 20.6L-32.2 7.3L-32.2 -7.3L-25.8 -20.6L-14.3 -29.7Z" fill="#297EA6"></path>
      </g>
      <g transform="translate(623 423)">
         <path d="M0 -28L12.1 -25.2L21.9 -17.5L27.3 -6.2L27.3 6.2L21.9 17.5L12.1 25.2L0 28L-12.1 25.2L-21.9 17.5L-27.3 6.2L-27.3 -6.2L-21.9 -17.5L-12.1 -25.2Z" fill="#297EA6"></path>
      </g>
      <g transform="translate(759 115)">
         <path d="M0 -15L6.5 -13.5L11.7 -9.4L14.6 -3.3L14.6 3.3L11.7 9.4L6.5 13.5L0 15L-6.5 13.5L-11.7 9.4L-14.6 3.3L-14.6 -3.3L-11.7 -9.4L-6.5 -13.5Z" fill="#297EA6"></path>
      </g>
      <g transform="translate(631 85)">
         <path d="M0 -21L9.1 -18.9L16.4 -13.1L20.5 -4.7L20.5 4.7L16.4 13.1L9.1 18.9L0 21L-9.1 18.9L-16.4 13.1L-20.5 4.7L-20.5 -4.7L-16.4 -13.1L-9.1 -18.9Z" fill="#297EA6"></path>
      </g>
      <g transform="translate(525 569)">
         <path d="M0 -38L16.5 -34.2L29.7 -23.7L37 -8.5L37 8.5L29.7 23.7L16.5 34.2L0 38L-16.5 34.2L-29.7 23.7L-37 8.5L-37 -8.5L-29.7 -23.7L-16.5 -34.2Z" fill="#297EA6"></path>
      </g>
      <g transform="translate(604 582)">
         <path d="M0 -29L12.6 -26.1L22.7 -18.1L28.3 -6.5L28.3 6.5L22.7 18.1L12.6 26.1L0 29L-12.6 26.1L-22.7 18.1L-28.3 6.5L-28.3 -6.5L-22.7 -18.1L-12.6 -26.1Z" fill="#297EA6"></path>
      </g>
      <g transform="translate(253 248)">
         <path d="M0 -25L10.8 -22.5L19.5 -15.6L24.4 -5.6L24.4 5.6L19.5 15.6L10.8 22.5L0 25L-10.8 22.5L-19.5 15.6L-24.4 5.6L-24.4 -5.6L-19.5 -15.6L-10.8 -22.5Z" fill="#297EA6"></path>
      </g>
      <g transform="translate(557 143)">
         <path d="M0 -14L6.1 -12.6L10.9 -8.7L13.6 -3.1L13.6 3.1L10.9 8.7L6.1 12.6L0 14L-6.1 12.6L-10.9 8.7L-13.6 3.1L-13.6 -3.1L-10.9 -8.7L-6.1 -12.6Z" fill="#297EA6"></path>
      </g>
      <g transform="translate(195 71)">
         <path d="M0 -26L11.3 -23.4L20.3 -16.2L25.3 -5.8L25.3 5.8L20.3 16.2L11.3 23.4L0 26L-11.3 23.4L-20.3 16.2L-25.3 5.8L-25.3 -5.8L-20.3 -16.2L-11.3 -23.4Z" fill="#297EA6"></path>
      </g>
      <g transform="translate(159 390)">
         <path d="M0 -21L9.1 -18.9L16.4 -13.1L20.5 -4.7L20.5 4.7L16.4 13.1L9.1 18.9L0 21L-9.1 18.9L-16.4 13.1L-20.5 4.7L-20.5 -4.7L-16.4 -13.1L-9.1 -18.9Z" fill="#297EA6"></path>
      </g>
      <g transform="translate(723 543)">
         <path d="M0 -39L16.9 -35.1L30.5 -24.3L38 -8.7L38 8.7L30.5 24.3L16.9 35.1L0 39L-16.9 35.1L-30.5 24.3L-38 8.7L-38 -8.7L-30.5 -24.3L-16.9 -35.1Z" fill="#297EA6"></path>
      </g>
      <g transform="translate(639 283)">
         <path d="M0 -14L6.1 -12.6L10.9 -8.7L13.6 -3.1L13.6 3.1L10.9 8.7L6.1 12.6L0 14L-6.1 12.6L-10.9 8.7L-13.6 3.1L-13.6 -3.1L-10.9 -8.7L-6.1 -12.6Z" fill="#297EA6"></path>
      </g>
   </g>
</svg>