<svg id="visual" viewBox="0 0 960 540" width="960" height="540" xmlns="http://www.w3.org/2000/svg" xmlns:xlink="http://www.w3.org/1999/xlink" version="1.1">
   <rect width="960" height="540" fill="#0A0E1C"></rect>
   <g>
      <g transform="translate(282 103)">
         <path d="M0 -12.8L5.6 -11.6L10 -8L12.5 -2.9L12.5 2.9L10 8L5.6 11.6L0 12.8L-5.6 11.6L-10 8L-12.5 2.9L-12.5 -2.9L-10 -8L-5.6 -11.6Z" fill="#d621da"></path>
      </g>
      <g transform="translate(127 340)">
         <path d="M0 -4L1.7 -3.6L3.1 -2.5L3.9 -0.9L3.9 0.9L3.1 2.5L1.7 3.6L0 4L-1.7 3.6L-3.1 2.5L-3.9 0.9L-3.9 -0.9L-3.1 -2.5L-1.7 -3.6Z" fill="#d621da"></path>
      </g>
      <g transform="translate(676 168)">
         <path d="M0 -11L4.8 -9.9L8.6 -6.9L10.7 -2.4L10.7 2.4L8.6 6.9L4.8 9.9L0 11L-4.8 9.9L-8.6 6.9L-10.7 2.4L-10.7 -2.4L-8.6 -6.9L-4.8 -9.9Z" fill="#d621da"></path>
      </g>
      <g transform="translate(895 238)">
         <path d="M0 -8L3.5 -7.2L6.3 -5L7.8 -1.8L7.8 1.8L6.3 5L3.5 7.2L0 8L-3.5 7.2L-6.3 5L-7.8 1.8L-7.8 -1.8L-6.3 -5L-3.5 -7.2Z" fill="#d621da"></path>
      </g>
      <g transform="translate(923 357)">
         <path d="M0 -9L3.9 -8.1L7 -5.6L8.8 -2L8.8 2L7 5.6L3.9 8.1L0 9L-3.9 8.1L-7 5.6L-8.8 2L-8.8 -2L-7 -5.6L-3.9 -8.1Z" fill="#d621da"></path>
      </g>
      <g transform="translate(59 401)">
         <path d="M0 -9L3.9 -8.1L7 -5.6L8.8 -2L8.8 2L7 5.6L3.9 8.1L0 9L-3.9 8.1L-7 5.6L-8.8 2L-8.8 -2L-7 -5.6L-3.9 -8.1Z" fill="#d621da"></path>
      </g>
      <g transform="translate(74 110)">
         <path d="M0 -1L0.4 -0.9L0.8 -0.6L1 -0.2L1 0.2L0.8 0.6L0.4 0.9L0 1L-0.4 0.9L-0.8 0.6L-1 0.2L-1 -0.2L-0.8 -0.6L-0.4 -0.9Z" fill="#d621da"></path>
      </g>
      <g transform="translate(570 447)">
         <path d="M0 -1L0.4 -0.9L0.8 -0.6L1 -0.2L1 0.2L0.8 0.6L0.4 0.9L0 1L-0.4 0.9L-0.8 0.6L-1 0.2L-1 -0.2L-0.8 -0.6L-0.4 -0.9Z" fill="#d621da"></path>
      </g>
      <g transform="translate(357 332)">
         <path d="M0 -5L2.2 -4.5L3.9 -3.1L4.9 -1.1L4.9 1.1L3.9 3.1L2.2 4.5L0 5L-2.2 4.5L-3.9 3.1L-4.9 1.1L-4.9 -1.1L-3.9 -3.1L-2.2 -4.5Z" fill="#d621da"></path>
      </g>
      <g transform="translate(643 65)">
         <path d="M0 -2L0.9 -1.8L1.6 -1.2L1.9 -0.4L1.9 0.4L1.6 1.2L0.9 1.8L0 2L-0.9 1.8L-1.6 1.2L-1.9 0.4L-1.9 -0.4L-1.6 -1.2L-0.9 -1.8Z" fill="#d621da"></path>
      </g>
      <g transform="translate(745 9)">
         <path d="M0 -5L2.2 -4.5L3.9 -3.1L4.9 -1.1L4.9 1.1L3.9 3.1L2.2 4.5L0 5L-2.2 4.5L-3.9 3.1L-4.9 1.1L-4.9 -1.1L-3.9 -3.1L-2.2 -4.5Z" fill="#d621da"></path>
      </g>
      <g transform="translate(885 338)">
         <path d="M0 -3L1.3 -2.7L2.3 -1.9L2.9 -0.7L2.9 0.7L2.3 1.9L1.3 2.7L0 3L-1.3 2.7L-2.3 1.9L-2.9 0.7L-2.9 -0.7L-2.3 -1.9L-1.3 -2.7Z" fill="#d621da"></path>
      </g>
      <g transform="translate(860 496)">
         <path d="M0 -2L0.9 -1.8L1.6 -1.2L1.9 -0.4L1.9 0.4L1.6 1.2L0.9 1.8L0 2L-0.9 1.8L-1.6 1.2L-1.9 0.4L-1.9 -0.4L-1.6 -1.2L-0.9 -1.8Z" fill="#d621da"></path>
      </g>
      <g transform="translate(264 470)">
         <path d="M0 -11L4.8 -9.9L8.6 -6.9L10.7 -2.4L10.7 2.4L8.6 6.9L4.8 9.9L0 11L-4.8 9.9L-8.6 6.9L-10.7 2.4L-10.7 -2.4L-8.6 -6.9L-4.8 -9.9Z" fill="#d621da"></path>
      </g>
      <g transform="translate(503 208)">
         <path d="M0 -10L4.3 -9L7.8 -6.2L9.7 -2.2L9.7 2.2L7.8 6.2L4.3 9L0 10L-4.3 9L-7.8 6.2L-9.7 2.2L-9.7 -2.2L-7.8 -6.2L-4.3 -9Z" fill="#d621da"></path>
      </g>
      <g transform="translate(419 289)">
         <path d="M0 -3L1.3 -2.7L2.3 -1.9L2.9 -0.7L2.9 0.7L2.3 1.9L1.3 2.7L0 3L-1.3 2.7L-2.3 1.9L-2.9 0.7L-2.9 -0.7L-2.3 -1.9L-1.3 -2.7Z" fill="#d621da"></path>
      </g>
      <g transform="translate(103 34)">
         <path d="M0 -11L4.8 -9.9L8.6 -6.9L10.7 -2.4L10.7 2.4L8.6 6.9L4.8 9.9L0 11L-4.8 9.9L-8.6 6.9L-10.7 2.4L-10.7 -2.4L-8.6 -6.9L-4.8 -9.9Z" fill="#d621da"></path>
      </g>
      <g transform="translate(511 510)">
         <path d="M0 -8L3.5 -7.2L6.3 -5L7.8 -1.8L7.8 1.8L6.3 5L3.5 7.2L0 8L-3.5 7.2L-6.3 5L-7.8 1.8L-7.8 -1.8L-6.3 -5L-3.5 -7.2Z" fill="#d621da"></path>
      </g>
      <g transform="translate(591 150)">
         <path d="M0 -9L3.9 -8.1L7 -5.6L8.8 -2L8.8 2L7 5.6L3.9 8.1L0 9L-3.9 8.1L-7 5.6L-8.8 2L-8.8 -2L-7 -5.6L-3.9 -8.1Z" fill="#d621da"></path>
      </g>
      <g transform="translate(354 393)">
         <path d="M0 -7L3 -6.3L5.5 -4.4L6.8 -1.6L6.8 1.6L5.5 4.4L3 6.3L0 7L-3 6.3L-5.5 4.4L-6.8 1.6L-6.8 -1.6L-5.5 -4.4L-3 -6.3Z" fill="#d621da"></path>
      </g>
      <g transform="translate(146 480)">
         <path d="M0 -2L0.9 -1.8L1.6 -1.2L1.9 -0.4L1.9 0.4L1.6 1.2L0.9 1.8L0 2L-0.9 1.8L-1.6 1.2L-1.9 0.4L-1.9 -0.4L-1.6 -1.2L-0.9 -1.8Z" fill="#d621da"></path>
      </g>
      <g transform="translate(951 365)">
         <path d="M0 -7L3 -6.3L5.5 -4.4L6.8 -1.6L6.8 1.6L5.5 4.4L3 6.3L0 7L-3 6.3L-5.5 4.4L-6.8 1.6L-6.8 -1.6L-5.5 -4.4L-3 -6.3Z" fill="#d621da"></path>
      </g>
      <g transform="translate(592 428)">
         <path d="M0 -8L3.5 -7.2L6.3 -5L7.8 -1.8L7.8 1.8L6.3 5L3.5 7.2L0 8L-3.5 7.2L-6.3 5L-7.8 1.8L-7.8 -1.8L-6.3 -5L-3.5 -7.2Z" fill="#d621da"></path>
      </g>
      <g transform="translate(63 484)">
         <path d="M0 -10L4.3 -9L7.8 -6.2L9.7 -2.2L9.7 2.2L7.8 6.2L4.3 9L0 10L-4.3 9L-7.8 6.2L-9.7 2.2L-9.7 -2.2L-7.8 -6.2L-4.3 -9Z" fill="#d621da"></path>
      </g>
      <g transform="translate(497 387)">
         <path d="M0 -7L3 -6.3L5.5 -4.4L6.8 -1.6L6.8 1.6L5.5 4.4L3 6.3L0 7L-3 6.3L-5.5 4.4L-6.8 1.6L-6.8 -1.6L-5.5 -4.4L-3 -6.3Z" fill="#d621da"></path>
      </g>
      <g transform="translate(173 420)">
         <path d="M0 -11L4.8 -9.9L8.6 -6.9L10.7 -2.4L10.7 2.4L8.6 6.9L4.8 9.9L0 11L-4.8 9.9L-8.6 6.9L-10.7 2.4L-10.7 -2.4L-8.6 -6.9L-4.8 -9.9Z" fill="#d621da"></path>
      </g>
      <g transform="translate(763 202)">
         <path d="M0 -4L1.7 -3.6L3.1 -2.5L3.9 -0.9L3.9 0.9L3.1 2.5L1.7 3.6L0 4L-1.7 3.6L-3.1 2.5L-3.9 0.9L-3.9 -0.9L-3.1 -2.5L-1.7 -3.6Z" fill="#d621da"></path>
      </g>
      <g transform="translate(476 450)">
         <path d="M0 -3L1.3 -2.7L2.3 -1.9L2.9 -0.7L2.9 0.7L2.3 1.9L1.3 2.7L0 3L-1.3 2.7L-2.3 1.9L-2.9 0.7L-2.9 -0.7L-2.3 -1.9L-1.3 -2.7Z" fill="#d621da"></path>
      </g>
      <g transform="translate(955 307)">
         <path d="M0 -6L2.6 -5.4L4.7 -3.7L5.8 -1.3L5.8 1.3L4.7 3.7L2.6 5.4L0 6L-2.6 5.4L-4.7 3.7L-5.8 1.3L-5.8 -1.3L-4.7 -3.7L-2.6 -5.4Z" fill="#d621da"></path>
      </g>
      <g transform="translate(64 58)">
         <path d="M0 -3L1.3 -2.7L2.3 -1.9L2.9 -0.7L2.9 0.7L2.3 1.9L1.3 2.7L0 3L-1.3 2.7L-2.3 1.9L-2.9 0.7L-2.9 -0.7L-2.3 -1.9L-1.3 -2.7Z" fill="#d621da"></path>
      </g>
      <g transform="translate(657 454)">
         <path d="M0 -4L1.7 -3.6L3.1 -2.5L3.9 -0.9L3.9 0.9L3.1 2.5L1.7 3.6L0 4L-1.7 3.6L-3.1 2.5L-3.9 0.9L-3.9 -0.9L-3.1 -2.5L-1.7 -3.6Z" fill="#d621da"></path>
      </g>
      <g transform="translate(377 280)">
         <path d="M0 -5L2.2 -4.5L3.9 -3.1L4.9 -1.1L4.9 1.1L3.9 3.1L2.2 4.5L0 5L-2.2 4.5L-3.9 3.1L-4.9 1.1L-4.9 -1.1L-3.9 -3.1L-2.2 -4.5Z" fill="#d621da"></path>
      </g>
      <g transform="translate(710 292)">
         <path d="M0 -8L3.5 -7.2L6.3 -5L7.8 -1.8L7.8 1.8L6.3 5L3.5 7.2L0 8L-3.5 7.2L-6.3 5L-7.8 1.8L-7.8 -1.8L-6.3 -5L-3.5 -7.2Z" fill="#d621da"></path>
      </g>
      <g transform="translate(172 448)">
         <path d="M0 -9L3.9 -8.1L7 -5.6L8.8 -2L8.8 2L7 5.6L3.9 8.1L0 9L-3.9 8.1L-7 5.6L-8.8 2L-8.8 -2L-7 -5.6L-3.9 -8.1Z" fill="#d621da"></path>
      </g>
      <g transform="translate(662 380)">
         <path d="M0 -1L0.4 -0.9L0.8 -0.6L1 -0.2L1 0.2L0.8 0.6L0.4 0.9L0 1L-0.4 0.9L-0.8 0.6L-1 0.2L-1 -0.2L-0.8 -0.6L-0.4 -0.9Z" fill="#d621da"></path>
      </g>
      <g transform="translate(397 330)">
         <path d="M0 -2L0.9 -1.8L1.6 -1.2L1.9 -0.4L1.9 0.4L1.6 1.2L0.9 1.8L0 2L-0.9 1.8L-1.6 1.2L-1.9 0.4L-1.9 -0.4L-1.6 -1.2L-0.9 -1.8Z" fill="#d621da"></path>
      </g>
      <g transform="translate(401 83)">
         <path d="M0 -8L3.5 -7.2L6.3 -5L7.8 -1.8L7.8 1.8L6.3 5L3.5 7.2L0 8L-3.5 7.2L-6.3 5L-7.8 1.8L-7.8 -1.8L-6.3 -5L-3.5 -7.2Z" fill="#d621da"></path>
      </g>
      <g transform="translate(150 244)">
         <path d="M0 -10L4.3 -9L7.8 -6.2L9.7 -2.2L9.7 2.2L7.8 6.2L4.3 9L0 10L-4.3 9L-7.8 6.2L-9.7 2.2L-9.7 -2.2L-7.8 -6.2L-4.3 -9Z" fill="#d621da"></path>
      </g>
      <g transform="translate(752 394)">
         <path d="M0 -11L4.8 -9.9L8.6 -6.9L10.7 -2.4L10.7 2.4L8.6 6.9L4.8 9.9L0 11L-4.8 9.9L-8.6 6.9L-10.7 2.4L-10.7 -2.4L-8.6 -6.9L-4.8 -9.9Z" fill="#d621da"></path>
      </g>
      <g transform="translate(194 314)">
         <path d="M0 -1L0.4 -0.9L0.8 -0.6L1 -0.2L1 0.2L0.8 0.6L0.4 0.9L0 1L-0.4 0.9L-0.8 0.6L-1 0.2L-1 -0.2L-0.8 -0.6L-0.4 -0.9Z" fill="#d621da"></path>
      </g>
      <g transform="translate(836 210)">
         <path d="M0 -7L3 -6.3L5.5 -4.4L6.8 -1.6L6.8 1.6L5.5 4.4L3 6.3L0 7L-3 6.3L-5.5 4.4L-6.8 1.6L-6.8 -1.6L-5.5 -4.4L-3 -6.3Z" fill="#d621da"></path>
      </g>
      <g transform="translate(217 191)">
         <path d="M0 -1L0.4 -0.9L0.8 -0.6L1 -0.2L1 0.2L0.8 0.6L0.4 0.9L0 1L-0.4 0.9L-0.8 0.6L-1 0.2L-1 -0.2L-0.8 -0.6L-0.4 -0.9Z" fill="#d621da"></path>
      </g>
      <g transform="translate(174 379)">
         <path d="M0 -3L1.3 -2.7L2.3 -1.9L2.9 -0.7L2.9 0.7L2.3 1.9L1.3 2.7L0 3L-1.3 2.7L-2.3 1.9L-2.9 0.7L-2.9 -0.7L-2.3 -1.9L-1.3 -2.7Z" fill="#d621da"></path>
      </g>
      <g transform="translate(728 266)">
         <path d="M0 -8L3.5 -7.2L6.3 -5L7.8 -1.8L7.8 1.8L6.3 5L3.5 7.2L0 8L-3.5 7.2L-6.3 5L-7.8 1.8L-7.8 -1.8L-6.3 -5L-3.5 -7.2Z" fill="#d621da"></path>
      </g>
      <g transform="translate(367 150)">
         <path d="M0 -10L4.3 -9L7.8 -6.2L9.7 -2.2L9.7 2.2L7.8 6.2L4.3 9L0 10L-4.3 9L-7.8 6.2L-9.7 2.2L-9.7 -2.2L-7.8 -6.2L-4.3 -9Z" fill="#d621da"></path>
      </g>
      <g transform="translate(789 523)">
         <path d="M0 -8L3.5 -7.2L6.3 -5L7.8 -1.8L7.8 1.8L6.3 5L3.5 7.2L0 8L-3.5 7.2L-6.3 5L-7.8 1.8L-7.8 -1.8L-6.3 -5L-3.5 -7.2Z" fill="#d621da"></path>
      </g>
      <g transform="translate(373 486)">
         <path d="M0 -10L4.3 -9L7.8 -6.2L9.7 -2.2L9.7 2.2L7.8 6.2L4.3 9L0 10L-4.3 9L-7.8 6.2L-9.7 2.2L-9.7 -2.2L-7.8 -6.2L-4.3 -9Z" fill="#d621da"></path>
      </g>
      <g transform="translate(587 308)">
         <path d="M0 -2L0.9 -1.8L1.6 -1.2L1.9 -0.4L1.9 0.4L1.6 1.2L0.9 1.8L0 2L-0.9 1.8L-1.6 1.2L-1.9 0.4L-1.9 -0.4L-1.6 -1.2L-0.9 -1.8Z" fill="#d621da"></path>
      </g>
      <g transform="translate(36 346)">
         <path d="M0 -4L1.7 -3.6L3.1 -2.5L3.9 -0.9L3.9 0.9L3.1 2.5L1.7 3.6L0 4L-1.7 3.6L-3.1 2.5L-3.9 0.9L-3.9 -0.9L-3.1 -2.5L-1.7 -3.6Z" fill="#d621da"></path>
      </g>
      <g transform="translate(473 105)">
         <path d="M0 -5L2.2 -4.5L3.9 -3.1L4.9 -1.1L4.9 1.1L3.9 3.1L2.2 4.5L0 5L-2.2 4.5L-3.9 3.1L-4.9 1.1L-4.9 -1.1L-3.9 -3.1L-2.2 -4.5Z" fill="#d621da"></path>
      </g>
      <g transform="translate(173 224)">
         <path d="M0 -5L2.2 -4.5L3.9 -3.1L4.9 -1.1L4.9 1.1L3.9 3.1L2.2 4.5L0 5L-2.2 4.5L-3.9 3.1L-4.9 1.1L-4.9 -1.1L-3.9 -3.1L-2.2 -4.5Z" fill="#d621da"></path>
      </g>
      <g transform="translate(216 148)">
         <path d="M0 -5L2.2 -4.5L3.9 -3.1L4.9 -1.1L4.9 1.1L3.9 3.1L2.2 4.5L0 5L-2.2 4.5L-3.9 3.1L-4.9 1.1L-4.9 -1.1L-3.9 -3.1L-2.2 -4.5Z" fill="#d621da"></path>
      </g>
      <g transform="translate(17 477)">
         <path d="M0 -4L1.7 -3.6L3.1 -2.5L3.9 -0.9L3.9 0.9L3.1 2.5L1.7 3.6L0 4L-1.7 3.6L-3.1 2.5L-3.9 0.9L-3.9 -0.9L-3.1 -2.5L-1.7 -3.6Z" fill="#d621da"></path>
      </g>
      <g transform="translate(106 429)">
         <path d="M0 -7L3 -6.3L5.5 -4.4L6.8 -1.6L6.8 1.6L5.5 4.4L3 6.3L0 7L-3 6.3L-5.5 4.4L-6.8 1.6L-6.8 -1.6L-5.5 -4.4L-3 -6.3Z" fill="#d621da"></path>
      </g>
      <g transform="translate(783 55)">
         <path d="M0 -3L1.3 -2.7L2.3 -1.9L2.9 -0.7L2.9 0.7L2.3 1.9L1.3 2.7L0 3L-1.3 2.7L-2.3 1.9L-2.9 0.7L-2.9 -0.7L-2.3 -1.9L-1.3 -2.7Z" fill="#d621da"></path>
      </g>
      <g transform="translate(325 376)">
         <path d="M0 -11L4.8 -9.9L8.6 -6.9L10.7 -2.4L10.7 2.4L8.6 6.9L4.8 9.9L0 11L-4.8 9.9L-8.6 6.9L-10.7 2.4L-10.7 -2.4L-8.6 -6.9L-4.8 -9.9Z" fill="#d621da"></path>
      </g>
      <g transform="translate(435 194)">
         <path d="M0 -6L2.6 -5.4L4.7 -3.7L5.8 -1.3L5.8 1.3L4.7 3.7L2.6 5.4L0 6L-2.6 5.4L-4.7 3.7L-5.8 1.3L-5.8 -1.3L-4.7 -3.7L-2.6 -5.4Z" fill="#d621da"></path>
      </g>
      <g transform="translate(723 119)">
         <path d="M0 -6L2.6 -5.4L4.7 -3.7L5.8 -1.3L5.8 1.3L4.7 3.7L2.6 5.4L0 6L-2.6 5.4L-4.7 3.7L-5.8 1.3L-5.8 -1.3L-4.7 -3.7L-2.6 -5.4Z" fill="#d621da"></path>
      </g>
      <g transform="translate(654 215)">
         <path d="M0 -1L0.4 -0.9L0.8 -0.6L1 -0.2L1 0.2L0.8 0.6L0.4 0.9L0 1L-0.4 0.9L-0.8 0.6L-1 0.2L-1 -0.2L-0.8 -0.6L-0.4 -0.9Z" fill="#d621da"></path>
      </g>
      <g transform="translate(350 102)">
         <path d="M0 -1L0.4 -0.9L0.8 -0.6L1 -0.2L1 0.2L0.8 0.6L0.4 0.9L0 1L-0.4 0.9L-0.8 0.6L-1 0.2L-1 -0.2L-0.8 -0.6L-0.4 -0.9Z" fill="#d621da"></path>
      </g>
      <g transform="translate(311 424)">
         <path d="M0 -10L4.3 -9L7.8 -6.2L9.7 -2.2L9.7 2.2L7.8 6.2L4.3 9L0 10L-4.3 9L-7.8 6.2L-9.7 2.2L-9.7 -2.2L-7.8 -6.2L-4.3 -9Z" fill="#d621da"></path>
      </g>
      <g transform="translate(542 474)">
         <path d="M0 -9L3.9 -8.1L7 -5.6L8.8 -2L8.8 2L7 5.6L3.9 8.1L0 9L-3.9 8.1L-7 5.6L-8.8 2L-8.8 -2L-7 -5.6L-3.9 -8.1Z" fill="#d621da"></path>
      </g>
      <g transform="translate(269 241)">
         <path d="M0 -2L0.9 -1.8L1.6 -1.2L1.9 -0.4L1.9 0.4L1.6 1.2L0.9 1.8L0 2L-0.9 1.8L-1.6 1.2L-1.9 0.4L-1.9 -0.4L-1.6 -1.2L-0.9 -1.8Z" fill="#d621da"></path>
      </g>
      <g transform="translate(453 318)">
         <path d="M0 -3L1.3 -2.7L2.3 -1.9L2.9 -0.7L2.9 0.7L2.3 1.9L1.3 2.7L0 3L-1.3 2.7L-2.3 1.9L-2.9 0.7L-2.9 -0.7L-2.3 -1.9L-1.3 -2.7Z" fill="#d621da"></path>
      </g>
      <g transform="translate(202 230)">
         <path d="M0 -2L0.9 -1.8L1.6 -1.2L1.9 -0.4L1.9 0.4L1.6 1.2L0.9 1.8L0 2L-0.9 1.8L-1.6 1.2L-1.9 0.4L-1.9 -0.4L-1.6 -1.2L-0.9 -1.8Z" fill="#d621da"></path>
      </g>
      <g transform="translate(277 405)">
         <path d="M0 -7L3 -6.3L5.5 -4.4L6.8 -1.6L6.8 1.6L5.5 4.4L3 6.3L0 7L-3 6.3L-5.5 4.4L-6.8 1.6L-6.8 -1.6L-5.5 -4.4L-3 -6.3Z" fill="#d621da"></path>
      </g>
      <g transform="translate(656 527)">
         <path d="M0 -10L4.3 -9L7.8 -6.2L9.7 -2.2L9.7 2.2L7.8 6.2L4.3 9L0 10L-4.3 9L-7.8 6.2L-9.7 2.2L-9.7 -2.2L-7.8 -6.2L-4.3 -9Z" fill="#d621da"></path>
      </g>
      <g transform="translate(422 346)">
         <path d="M0 -10L4.3 -9L7.8 -6.2L9.7 -2.2L9.7 2.2L7.8 6.2L4.3 9L0 10L-4.3 9L-7.8 6.2L-9.7 2.2L-9.7 -2.2L-7.8 -6.2L-4.3 -9Z" fill="#d621da"></path>
      </g>
      <g transform="translate(564 135)">
         <path d="M0 -6L2.6 -5.4L4.7 -3.7L5.8 -1.3L5.8 1.3L4.7 3.7L2.6 5.4L0 6L-2.6 5.4L-4.7 3.7L-5.8 1.3L-5.8 -1.3L-4.7 -3.7L-2.6 -5.4Z" fill="#d621da"></path>
      </g>
      <g transform="translate(879 452)">
         <path d="M0 -8L3.5 -7.2L6.3 -5L7.8 -1.8L7.8 1.8L6.3 5L3.5 7.2L0 8L-3.5 7.2L-6.3 5L-7.8 1.8L-7.8 -1.8L-6.3 -5L-3.5 -7.2Z" fill="#d621da"></path>
      </g>
      <g transform="translate(275 290)">
         <path d="M0 -1L0.4 -0.9L0.8 -0.6L1 -0.2L1 0.2L0.8 0.6L0.4 0.9L0 1L-0.4 0.9L-0.8 0.6L-1 0.2L-1 -0.2L-0.8 -0.6L-0.4 -0.9Z" fill="#d621da"></path>
      </g>
      <g transform="translate(836 162)">
         <path d="M0 -8L3.5 -7.2L6.3 -5L7.8 -1.8L7.8 1.8L6.3 5L3.5 7.2L0 8L-3.5 7.2L-6.3 5L-7.8 1.8L-7.8 -1.8L-6.3 -5L-3.5 -7.2Z" fill="#d621da"></path>
      </g>
      <g transform="translate(928 527)">
         <path d="M0 -1L0.4 -0.9L0.8 -0.6L1 -0.2L1 0.2L0.8 0.6L0.4 0.9L0 1L-0.4 0.9L-0.8 0.6L-1 0.2L-1 -0.2L-0.8 -0.6L-0.4 -0.9Z" fill="#d621da"></path>
      </g>
      <g transform="translate(318 289)">
         <path d="M0 -8L3.5 -7.2L6.3 -5L7.8 -1.8L7.8 1.8L6.3 5L3.5 7.2L0 8L-3.5 7.2L-6.3 5L-7.8 1.8L-7.8 -1.8L-6.3 -5L-3.5 -7.2Z" fill="#d621da"></path>
      </g>
      <g transform="translate(91 478)">
         <path d="M0 -5L2.2 -4.5L3.9 -3.1L4.9 -1.1L4.9 1.1L3.9 3.1L2.2 4.5L0 5L-2.2 4.5L-3.9 3.1L-4.9 1.1L-4.9 -1.1L-3.9 -3.1L-2.2 -4.5Z" fill="#d621da"></path>
      </g>
      <g transform="translate(378 17)">
         <path d="M0 -2L0.9 -1.8L1.6 -1.2L1.9 -0.4L1.9 0.4L1.6 1.2L0.9 1.8L0 2L-0.9 1.8L-1.6 1.2L-1.9 0.4L-1.9 -0.4L-1.6 -1.2L-0.9 -1.8Z" fill="#d621da"></path>
      </g>
      <g transform="translate(781 230)">
         <path d="M0 -11L4.8 -9.9L8.6 -6.9L10.7 -2.4L10.7 2.4L8.6 6.9L4.8 9.9L0 11L-4.8 9.9L-8.6 6.9L-10.7 2.4L-10.7 -2.4L-8.6 -6.9L-4.8 -9.9Z" fill="#d621da"></path>
      </g>
      <g transform="translate(24 372)">
         <path d="M0 -8L3.5 -7.2L6.3 -5L7.8 -1.8L7.8 1.8L6.3 5L3.5 7.2L0 8L-3.5 7.2L-6.3 5L-7.8 1.8L-7.8 -1.8L-6.3 -5L-3.5 -7.2Z" fill="#d621da"></path>
      </g>
      <g transform="translate(249 311)">
         <path d="M0 -5L2.2 -4.5L3.9 -3.1L4.9 -1.1L4.9 1.1L3.9 3.1L2.2 4.5L0 5L-2.2 4.5L-3.9 3.1L-4.9 1.1L-4.9 -1.1L-3.9 -3.1L-2.2 -4.5Z" fill="#d621da"></path>
      </g>
      <g transform="translate(176 250)">
         <path d="M0 -2L0.9 -1.8L1.6 -1.2L1.9 -0.4L1.9 0.4L1.6 1.2L0.9 1.8L0 2L-0.9 1.8L-1.6 1.2L-1.9 0.4L-1.9 -0.4L-1.6 -1.2L-0.9 -1.8Z" fill="#d621da"></path>
      </g>
      <g transform="translate(292 312)">
         <path d="M0 -7L3 -6.3L5.5 -4.4L6.8 -1.6L6.8 1.6L5.5 4.4L3 6.3L0 7L-3 6.3L-5.5 4.4L-6.8 1.6L-6.8 -1.6L-5.5 -4.4L-3 -6.3Z" fill="#d621da"></path>
      </g>
      <g transform="translate(686 509)">
         <path d="M0 -3L1.3 -2.7L2.3 -1.9L2.9 -0.7L2.9 0.7L2.3 1.9L1.3 2.7L0 3L-1.3 2.7L-2.3 1.9L-2.9 0.7L-2.9 -0.7L-2.3 -1.9L-1.3 -2.7Z" fill="#d621da"></path>
      </g>
      <g transform="translate(873 112)">
         <path d="M0 -8L3.5 -7.2L6.3 -5L7.8 -1.8L7.8 1.8L6.3 5L3.5 7.2L0 8L-3.5 7.2L-6.3 5L-7.8 1.8L-7.8 -1.8L-6.3 -5L-3.5 -7.2Z" fill="#d621da"></path>
      </g>
      <g transform="translate(589 468)">
         <path d="M0 -9L3.9 -8.1L7 -5.6L8.8 -2L8.8 2L7 5.6L3.9 8.1L0 9L-3.9 8.1L-7 5.6L-8.8 2L-8.8 -2L-7 -5.6L-3.9 -8.1Z" fill="#d621da"></path>
      </g>
      <g transform="translate(70 217)">
         <path d="M0 -4L1.7 -3.6L3.1 -2.5L3.9 -0.9L3.9 0.9L3.1 2.5L1.7 3.6L0 4L-1.7 3.6L-3.1 2.5L-3.9 0.9L-3.9 -0.9L-3.1 -2.5L-1.7 -3.6Z" fill="#d621da"></path>
      </g>
      <g transform="translate(460 357)">
         <path d="M0 -11L4.8 -9.9L8.6 -6.9L10.7 -2.4L10.7 2.4L8.6 6.9L4.8 9.9L0 11L-4.8 9.9L-8.6 6.9L-10.7 2.4L-10.7 -2.4L-8.6 -6.9L-4.8 -9.9Z" fill="#d621da"></path>
      </g>
      <g transform="translate(889 536)">
         <path d="M0 -6L2.6 -5.4L4.7 -3.7L5.8 -1.3L5.8 1.3L4.7 3.7L2.6 5.4L0 6L-2.6 5.4L-4.7 3.7L-5.8 1.3L-5.8 -1.3L-4.7 -3.7L-2.6 -5.4Z" fill="#d621da"></path>
      </g>
      <g transform="translate(649 498)">
         <path d="M0 -8L3.5 -7.2L6.3 -5L7.8 -1.8L7.8 1.8L6.3 5L3.5 7.2L0 8L-3.5 7.2L-6.3 5L-7.8 1.8L-7.8 -1.8L-6.3 -5L-3.5 -7.2Z" fill="#d621da"></path>
      </g>
      <g transform="translate(627 272)">
         <path d="M0 -1L0.4 -0.9L0.8 -0.6L1 -0.2L1 0.2L0.8 0.6L0.4 0.9L0 1L-0.4 0.9L-0.8 0.6L-1 0.2L-1 -0.2L-0.8 -0.6L-0.4 -0.9Z" fill="#d621da"></path>
      </g>
      <g transform="translate(605 340)">
         <path d="M0 -4L1.7 -3.6L3.1 -2.5L3.9 -0.9L3.9 0.9L3.1 2.5L1.7 3.6L0 4L-1.7 3.6L-3.1 2.5L-3.9 0.9L-3.9 -0.9L-3.1 -2.5L-1.7 -3.6Z" fill="#d621da"></path>
      </g>
      <g transform="translate(302 158)">
         <path d="M0 -4L1.7 -3.6L3.1 -2.5L3.9 -0.9L3.9 0.9L3.1 2.5L1.7 3.6L0 4L-1.7 3.6L-3.1 2.5L-3.9 0.9L-3.9 -0.9L-3.1 -2.5L-1.7 -3.6Z" fill="#d621da"></path>
      </g>
      <g transform="translate(744 293)">
         <path d="M0 -10L4.3 -9L7.8 -6.2L9.7 -2.2L9.7 2.2L7.8 6.2L4.3 9L0 10L-4.3 9L-7.8 6.2L-9.7 2.2L-9.7 -2.2L-7.8 -6.2L-4.3 -9Z" fill="#d621da"></path>
      </g>
      <g transform="translate(549 508)">
         <path d="M0 -3L1.3 -2.7L2.3 -1.9L2.9 -0.7L2.9 0.7L2.3 1.9L1.3 2.7L0 3L-1.3 2.7L-2.3 1.9L-2.9 0.7L-2.9 -0.7L-2.3 -1.9L-1.3 -2.7Z" fill="#d621da"></path>
      </g>
      <g transform="translate(80 151)">
         <path d="M0 -6L2.6 -5.4L4.7 -3.7L5.8 -1.3L5.8 1.3L4.7 3.7L2.6 5.4L0 6L-2.6 5.4L-4.7 3.7L-5.8 1.3L-5.8 -1.3L-4.7 -3.7L-2.6 -5.4Z" fill="#d621da"></path>
      </g>
      <g transform="translate(440 50)">
         <path d="M0 -1L0.4 -0.9L0.8 -0.6L1 -0.2L1 0.2L0.8 0.6L0.4 0.9L0 1L-0.4 0.9L-0.8 0.6L-1 0.2L-1 -0.2L-0.8 -0.6L-0.4 -0.9Z" fill="#d621da"></path>
      </g>
      <g transform="translate(206 122)">
         <path d="M0 -3L1.3 -2.7L2.3 -1.9L2.9 -0.7L2.9 0.7L2.3 1.9L1.3 2.7L0 3L-1.3 2.7L-2.3 1.9L-2.9 0.7L-2.9 -0.7L-2.3 -1.9L-1.3 -2.7Z" fill="#d621da"></path>
      </g>
      <g transform="translate(878 390)">
         <path d="M0 -1L0.4 -0.9L0.8 -0.6L1 -0.2L1 0.2L0.8 0.6L0.4 0.9L0 1L-0.4 0.9L-0.8 0.6L-1 0.2L-1 -0.2L-0.8 -0.6L-0.4 -0.9Z" fill="#d621da"></path>
      </g>
      <g transform="translate(845 21)">
         <path d="M0 -2L0.9 -1.8L1.6 -1.2L1.9 -0.4L1.9 0.4L1.6 1.2L0.9 1.8L0 2L-0.9 1.8L-1.6 1.2L-1.9 0.4L-1.9 -0.4L-1.6 -1.2L-0.9 -1.8Z" fill="#d621da"></path>
      </g>
      <g transform="translate(14 298)">
         <path d="M0 -9L3.9 -8.1L7 -5.6L8.8 -2L8.8 2L7 5.6L3.9 8.1L0 9L-3.9 8.1L-7 5.6L-8.8 2L-8.8 -2L-7 -5.6L-3.9 -8.1Z" fill="#d621da"></path>
      </g>
      <g transform="translate(256 20)">
         <path d="M0 -2L0.9 -1.8L1.6 -1.2L1.9 -0.4L1.9 0.4L1.6 1.2L0.9 1.8L0 2L-0.9 1.8L-1.6 1.2L-1.9 0.4L-1.9 -0.4L-1.6 -1.2L-0.9 -1.8Z" fill="#d621da"></path>
      </g>
      <g transform="translate(433 399)">
         <path d="M0 -3L1.3 -2.7L2.3 -1.9L2.9 -0.7L2.9 0.7L2.3 1.9L1.3 2.7L0 3L-1.3 2.7L-2.3 1.9L-2.9 0.7L-2.9 -0.7L-2.3 -1.9L-1.3 -2.7Z" fill="#d621da"></path>
      </g>
      <g transform="translate(938 132)">
         <path d="M0 -11L4.8 -9.9L8.6 -6.9L10.7 -2.4L10.7 2.4L8.6 6.9L4.8 9.9L0 11L-4.8 9.9L-8.6 6.9L-10.7 2.4L-10.7 -2.4L-8.6 -6.9L-4.8 -9.9Z" fill="#d621da"></path>
      </g>
      <g transform="translate(120 262)">
         <path d="M0 -8L3.5 -7.2L6.3 -5L7.8 -1.8L7.8 1.8L6.3 5L3.5 7.2L0 8L-3.5 7.2L-6.3 5L-7.8 1.8L-7.8 -1.8L-6.3 -5L-3.5 -7.2Z" fill="#d621da"></path>
      </g>
      <g transform="translate(638 113)">
         <path d="M0 -4L1.7 -3.6L3.1 -2.5L3.9 -0.9L3.9 0.9L3.1 2.5L1.7 3.6L0 4L-1.7 3.6L-3.1 2.5L-3.9 0.9L-3.9 -0.9L-3.1 -2.5L-1.7 -3.6Z" fill="#d621da"></path>
      </g>
      <g transform="translate(132 66)">
         <path d="M0 -10L4.3 -9L7.8 -6.2L9.7 -2.2L9.7 2.2L7.8 6.2L4.3 9L0 10L-4.3 9L-7.8 6.2L-9.7 2.2L-9.7 -2.2L-7.8 -6.2L-4.3 -9Z" fill="#d621da"></path>
      </g>
      <g transform="translate(349 39)">
         <path d="M0 -7L3 -6.3L5.5 -4.4L6.8 -1.6L6.8 1.6L5.5 4.4L3 6.3L0 7L-3 6.3L-5.5 4.4L-6.8 1.6L-6.8 -1.6L-5.5 -4.4L-3 -6.3Z" fill="#d621da"></path>
      </g>
      <g transform="translate(752 86)">
         <path d="M0 -6L2.6 -5.4L4.7 -3.7L5.8 -1.3L5.8 1.3L4.7 3.7L2.6 5.4L0 6L-2.6 5.4L-4.7 3.7L-5.8 1.3L-5.8 -1.3L-4.7 -3.7L-2.6 -5.4Z" fill="#d621da"></path>
      </g>
      <g transform="translate(262 345)">
         <path d="M0 -4L1.7 -3.6L3.1 -2.5L3.9 -0.9L3.9 0.9L3.1 2.5L1.7 3.6L0 4L-1.7 3.6L-3.1 2.5L-3.9 0.9L-3.9 -0.9L-3.1 -2.5L-1.7 -3.6Z" fill="#d621da"></path>
      </g>
      <g transform="translate(141 210)">
         <path d="M0 -10L4.3 -9L7.8 -6.2L9.7 -2.2L9.7 2.2L7.8 6.2L4.3 9L0 10L-4.3 9L-7.8 6.2L-9.7 2.2L-9.7 -2.2L-7.8 -6.2L-4.3 -9Z" fill="#d621da"></path>
      </g>
      <g transform="translate(621 85)">
         <path d="M0 -4L1.7 -3.6L3.1 -2.5L3.9 -0.9L3.9 0.9L3.1 2.5L1.7 3.6L0 4L-1.7 3.6L-3.1 2.5L-3.9 0.9L-3.9 -0.9L-3.1 -2.5L-1.7 -3.6Z" fill="#d621da"></path>
      </g>
      <g transform="translate(853 313)">
         <path d="M0 -2L0.9 -1.8L1.6 -1.2L1.9 -0.4L1.9 0.4L1.6 1.2L0.9 1.8L0 2L-0.9 1.8L-1.6 1.2L-1.9 0.4L-1.9 -0.4L-1.6 -1.2L-0.9 -1.8Z" fill="#d621da"></path>
      </g>
      <g transform="translate(132 125)">
         <path d="M0 -1L0.4 -0.9L0.8 -0.6L1 -0.2L1 0.2L0.8 0.6L0.4 0.9L0 1L-0.4 0.9L-0.8 0.6L-1 0.2L-1 -0.2L-0.8 -0.6L-0.4 -0.9Z" fill="#d621da"></path>
      </g>
      <g transform="translate(198 530)">
         <path d="M0 -6L2.6 -5.4L4.7 -3.7L5.8 -1.3L5.8 1.3L4.7 3.7L2.6 5.4L0 6L-2.6 5.4L-4.7 3.7L-5.8 1.3L-5.8 -1.3L-4.7 -3.7L-2.6 -5.4Z" fill="#d621da"></path>
      </g>
      <g transform="translate(522 132)">
         <path d="M0 -3L1.3 -2.7L2.3 -1.9L2.9 -0.7L2.9 0.7L2.3 1.9L1.3 2.7L0 3L-1.3 2.7L-2.3 1.9L-2.9 0.7L-2.9 -0.7L-2.3 -1.9L-1.3 -2.7Z" fill="#d621da"></path>
      </g>
      <g transform="translate(474 55)">
         <path d="M0 -7L3 -6.3L5.5 -4.4L6.8 -1.6L6.8 1.6L5.5 4.4L3 6.3L0 7L-3 6.3L-5.5 4.4L-6.8 1.6L-6.8 -1.6L-5.5 -4.4L-3 -6.3Z" fill="#d621da"></path>
      </g>
      <g transform="translate(854 84)">
         <path d="M0 -6L2.6 -5.4L4.7 -3.7L5.8 -1.3L5.8 1.3L4.7 3.7L2.6 5.4L0 6L-2.6 5.4L-4.7 3.7L-5.8 1.3L-5.8 -1.3L-4.7 -3.7L-2.6 -5.4Z" fill="#d621da"></path>
      </g>
      <g transform="translate(474 227)">
         <path d="M0 -5L2.2 -4.5L3.9 -3.1L4.9 -1.1L4.9 1.1L3.9 3.1L2.2 4.5L0 5L-2.2 4.5L-3.9 3.1L-4.9 1.1L-4.9 -1.1L-3.9 -3.1L-2.2 -4.5Z" fill="#d621da"></path>
      </g>
      <g transform="translate(711 64)">
         <path d="M0 -10L4.3 -9L7.8 -6.2L9.7 -2.2L9.7 2.2L7.8 6.2L4.3 9L0 10L-4.3 9L-7.8 6.2L-9.7 2.2L-9.7 -2.2L-7.8 -6.2L-4.3 -9Z" fill="#d621da"></path>
      </g>
      <g transform="translate(925 85)">
         <path d="M0 -11L4.8 -9.9L8.6 -6.9L10.7 -2.4L10.7 2.4L8.6 6.9L4.8 9.9L0 11L-4.8 9.9L-8.6 6.9L-10.7 2.4L-10.7 -2.4L-8.6 -6.9L-4.8 -9.9Z" fill="#d621da"></path>
      </g>
      <g transform="translate(333 14)">
         <path d="M0 -2L0.9 -1.8L1.6 -1.2L1.9 -0.4L1.9 0.4L1.6 1.2L0.9 1.8L0 2L-0.9 1.8L-1.6 1.2L-1.9 0.4L-1.9 -0.4L-1.6 -1.2L-0.9 -1.8Z" fill="#d621da"></path>
      </g>
      <g transform="translate(714 243)">
         <path d="M0 -10L4.3 -9L7.8 -6.2L9.7 -2.2L9.7 2.2L7.8 6.2L4.3 9L0 10L-4.3 9L-7.8 6.2L-9.7 2.2L-9.7 -2.2L-7.8 -6.2L-4.3 -9Z" fill="#d621da"></path>
      </g>
      <g transform="translate(447 290)">
         <path d="M0 -6L2.6 -5.4L4.7 -3.7L5.8 -1.3L5.8 1.3L4.7 3.7L2.6 5.4L0 6L-2.6 5.4L-4.7 3.7L-5.8 1.3L-5.8 -1.3L-4.7 -3.7L-2.6 -5.4Z" fill="#d621da"></path>
      </g>
      <g transform="translate(192 170)">
         <path d="M0 -3L1.3 -2.7L2.3 -1.9L2.9 -0.7L2.9 0.7L2.3 1.9L1.3 2.7L0 3L-1.3 2.7L-2.3 1.9L-2.9 0.7L-2.9 -0.7L-2.3 -1.9L-1.3 -2.7Z" fill="#d621da"></path>
      </g>
      <g transform="translate(292 14)">
         <path d="M0 -11L4.8 -9.9L8.6 -6.9L10.7 -2.4L10.7 2.4L8.6 6.9L4.8 9.9L0 11L-4.8 9.9L-8.6 6.9L-10.7 2.4L-10.7 -2.4L-8.6 -6.9L-4.8 -9.9Z" fill="#d621da"></path>
      </g>
      <g transform="translate(608 252)">
         <path d="M0 -6L2.6 -5.4L4.7 -3.7L5.8 -1.3L5.8 1.3L4.7 3.7L2.6 5.4L0 6L-2.6 5.4L-4.7 3.7L-5.8 1.3L-5.8 -1.3L-4.7 -3.7L-2.6 -5.4Z" fill="#d621da"></path>
      </g>
      <g transform="translate(563 380)">
         <path d="M0 -11L4.8 -9.9L8.6 -6.9L10.7 -2.4L10.7 2.4L8.6 6.9L4.8 9.9L0 11L-4.8 9.9L-8.6 6.9L-10.7 2.4L-10.7 -2.4L-8.6 -6.9L-4.8 -9.9Z" fill="#d621da"></path>
      </g>
      <g transform="translate(352 440)">
         <path d="M0 -2L0.9 -1.8L1.6 -1.2L1.9 -0.4L1.9 0.4L1.6 1.2L0.9 1.8L0 2L-0.9 1.8L-1.6 1.2L-1.9 0.4L-1.9 -0.4L-1.6 -1.2L-0.9 -1.8Z" fill="#d621da"></path>
      </g>
      <g transform="translate(527 449)">
         <path d="M0 -11L4.8 -9.9L8.6 -6.9L10.7 -2.4L10.7 2.4L8.6 6.9L4.8 9.9L0 11L-4.8 9.9L-8.6 6.9L-10.7 2.4L-10.7 -2.4L-8.6 -6.9L-4.8 -9.9Z" fill="#d621da"></path>
      </g>
      <g transform="translate(269 517)">
         <path d="M0 -11L4.8 -9.9L8.6 -6.9L10.7 -2.4L10.7 2.4L8.6 6.9L4.8 9.9L0 11L-4.8 9.9L-8.6 6.9L-10.7 2.4L-10.7 -2.4L-8.6 -6.9L-4.8 -9.9Z" fill="#d621da"></path>
      </g>
      <g transform="translate(28 24)">
         <path d="M0 -10L4.3 -9L7.8 -6.2L9.7 -2.2L9.7 2.2L7.8 6.2L4.3 9L0 10L-4.3 9L-7.8 6.2L-9.7 2.2L-9.7 -2.2L-7.8 -6.2L-4.3 -9Z" fill="#d621da"></path>
      </g>
      <g transform="translate(129 175)">
         <path d="M0 -9L3.9 -8.1L7 -5.6L8.8 -2L8.8 2L7 5.6L3.9 8.1L0 9L-3.9 8.1L-7 5.6L-8.8 2L-8.8 -2L-7 -5.6L-3.9 -8.1Z" fill="#d621da"></path>
      </g>
      <g transform="translate(755 440)">
         <path d="M0 -7L3 -6.3L5.5 -4.4L6.8 -1.6L6.8 1.6L5.5 4.4L3 6.3L0 7L-3 6.3L-5.5 4.4L-6.8 1.6L-6.8 -1.6L-5.5 -4.4L-3 -6.3Z" fill="#d621da"></path>
      </g>
      <g transform="translate(228 513)">
         <path d="M0 -2L0.9 -1.8L1.6 -1.2L1.9 -0.4L1.9 0.4L1.6 1.2L0.9 1.8L0 2L-0.9 1.8L-1.6 1.2L-1.9 0.4L-1.9 -0.4L-1.6 -1.2L-0.9 -1.8Z" fill="#d621da"></path>
      </g>
      <g transform="translate(822 355)">
         <path d="M0 -6L2.6 -5.4L4.7 -3.7L5.8 -1.3L5.8 1.3L4.7 3.7L2.6 5.4L0 6L-2.6 5.4L-4.7 3.7L-5.8 1.3L-5.8 -1.3L-4.7 -3.7L-2.6 -5.4Z" fill="#d621da"></path>
      </g>
      <g transform="translate(768 372)">
         <path d="M0 -10L4.3 -9L7.8 -6.2L9.7 -2.2L9.7 2.2L7.8 6.2L4.3 9L0 10L-4.3 9L-7.8 6.2L-9.7 2.2L-9.7 -2.2L-7.8 -6.2L-4.3 -9Z" fill="#d621da"></path>
      </g>
      <g transform="translate(926 397)">
         <path d="M0 -5L2.2 -4.5L3.9 -3.1L4.9 -1.1L4.9 1.1L3.9 3.1L2.2 4.5L0 5L-2.2 4.5L-3.9 3.1L-4.9 1.1L-4.9 -1.1L-3.9 -3.1L-2.2 -4.5Z" fill="#d621da"></path>
      </g>
      <g transform="translate(118 485)">
         <path d="M0 -10L4.3 -9L7.8 -6.2L9.7 -2.2L9.7 2.2L7.8 6.2L4.3 9L0 10L-4.3 9L-7.8 6.2L-9.7 2.2L-9.7 -2.2L-7.8 -6.2L-4.3 -9Z" fill="#d621da"></path>
      </g>
      <g transform="translate(794 194)">
         <path d="M0 -7L3 -6.3L5.5 -4.4L6.8 -1.6L6.8 1.6L5.5 4.4L3 6.3L0 7L-3 6.3L-5.5 4.4L-6.8 1.6L-6.8 -1.6L-5.5 -4.4L-3 -6.3Z" fill="#d621da"></path>
      </g>
   </g>
</svg>