<svg id="visual" viewBox="0 0 960 540" width="960" height="540" xmlns="http://www.w3.org/2000/svg" xmlns:xlink="http://www.w3.org/1999/xlink" version="1.1">
   <rect x="0" y="0" width="960" height="540" fill="#F7F9FC"></rect>
   <path d="M0 410L26.7 410.8C53.3 411.7 106.7 413.3 160 408C213.3 402.7 266.7 390.3 320 392.5C373.3 394.7 426.7 411.3 480 419.8C533.3 428.3 586.7 428.7 640 428.3C693.3 428 746.7 427 800 419.8C853.3 412.7 906.7 399.3 933.3 392.7L960 386L960 541L933.3 541C906.7 541 853.3 541 800 541C746.7 541 693.3 541 640 541C586.7 541 533.3 541 480 541C426.7 541 373.3 541 320 541C266.7 541 213.3 541 160 541C106.7 541 53.3 541 26.7 541L0 541Z" fill="#0066FF" stroke-linecap="round" stroke-linejoin="miter"></path>
</svg>